<svg xmlns="http://www.w3.org/2000/svg" viewBox="0 0 160 300" fill="none">
  <!-- Stalk 1 -->
  <rect x="20" y="20" width="24" height="60" rx="3" fill="#047857"/>
  <rect x="20" y="86" width="24" height="64" rx="3" fill="#065F46"/>
  <rect x="20" y="156" width="24" height="70" rx="3" fill="#047857"/>
  <rect x="20" y="232" width="24" height="68" rx="3" fill="#064E3B"/>
  <!-- Node rings -->
  <rect x="18" y="80" width="28" height="6" rx="2" fill="#A7F3D0"/>
  <rect x="18" y="150" width="28" height="6" rx="2" fill="#A7F3D0"/>
  <rect x="18" y="226" width="28" height="6" rx="2" fill="#A7F3D0"/>

  <!-- Stalk 2 -->
  <rect x="70" y="40" width="28" height="55" rx="3" fill="#059669"/>
  <rect x="70" y="101" width="28" height="60" rx="3" fill="#047857"/>
  <rect x="70" y="167" width="28" height="66" rx="3" fill="#065F46"/>
  <rect x="70" y="239" width="28" height="61" rx="3" fill="#064E3B"/>
  <!-- Node rings -->
  <rect x="68" y="95" width="32" height="6" rx="2" fill="#6EE7B7"/>
  <rect x="68" y="161" width="32" height="6" rx="2" fill="#6EE7B7"/>
  <rect x="68" y="233" width="32" height="6" rx="2" fill="#6EE7B7"/>

  <!-- Leaves -->
  <path d="M98 95C125 80 150 90 150 90C150 90 135 110 100 100Z" fill="#10B981"/>
  <path d="M20 150C0 140 -15 150 -15 150C-15 150 0 165 20 156Z" fill="#059669"/>
</svg>
